<svg width="183" height="164" viewBox="0 0 183 164" fill="none" xmlns="http://www.w3.org/2000/svg">
    <path d="M162.491 70.4748C162.491 106.221 133.512 135.2 97.7658 135.2C62.0193 135.2 33.041 106.221 33.041 70.4748C33.041 34.7283 62.0193 5.75 97.7658 5.75C133.512 5.75 162.491 34.7283 162.491 70.4748Z" fill="#F6F5FF"/>
    <circle cx="15.8696" cy="13.8696" r="13.8696" fill="#F6F5FF"/>
    <g filter="url(#filter0_d)">
        <rect x="15.7959" y="38.3008" width="105.905" height="105.413" rx="5.04591" fill="white"/>
    </g>
    <path d="M76.8428 52.8867L76.8428 62.0929L27.6852 62.0929L27.6852 52.8867L76.8428 52.8867Z" fill="#EEEBFF"/>
    <path d="M76.7285 68.9844L76.7285 78.1817L27.293 78.1817L27.293 68.9844L76.7285 68.9844Z" fill="#EEEBFF"/>
    <path d="M110.068 85.0742L110.068 94.2715L27.2926 94.2715L27.2926 85.0742L110.068 85.0742Z" fill="#EEEBFF"/>
    <path d="M110.068 102.324L110.068 111.522L27.2926 111.522L27.2926 102.324L110.068 102.324Z" fill="#EEEBFF"/>
    <path d="M110.068 118.5L110.068 127.616L27.2925 127.616L27.2925 118.5L110.068 118.5Z" fill="#EEEBFF"/>
    <path d="M153.007 120.635L133.136 100.763C132.228 99.8561 130.686 99.8561 129.778 100.763C129.327 101.214 128.596 101.214 128.145 100.763L125.83 98.4486C124.289 96.9077 124.132 94.4891 125.184 92.5809C131.606 80.9373 129.848 65.9892 119.978 56.1199C107.91 44.1423 88.492 44.1423 76.5144 56.1199C64.5369 68.0974 64.5369 87.5156 76.5144 99.4931C82.3217 105.3 90.0345 108.476 98.201 108.476C103.442 108.476 108.508 107.133 112.978 104.681C114.885 103.634 117.297 103.799 118.836 105.337L121.158 107.66C121.609 108.111 121.609 108.842 121.158 109.293C120.251 110.2 120.251 111.743 121.158 112.65L141.03 132.522C141.937 133.429 143.48 133.429 144.387 132.522L153.007 123.902C154.005 123.085 154.005 121.633 153.007 120.635ZM98.201 98.7672C92.5752 98.7672 87.3123 96.5895 83.4106 92.5969C75.2441 84.4304 75.2441 71.0918 83.4106 62.9253C87.4938 58.842 92.8474 56.755 98.201 56.755C103.555 56.755 108.908 58.842 112.991 62.9253C121.158 71.0918 121.158 84.4304 112.991 92.5969C109.09 96.5895 103.827 98.7672 98.201 98.7672Z" fill="#212EEE"/>
    <g opacity="0.25" filter="url(#filter1_f)">
        <path d="M170.251 116.038L150.38 96.1658C149.472 95.2584 147.93 95.2584 147.022 96.1658L146.206 96.9824L140.398 91.1751C149.109 79.1976 148.02 62.3202 137.223 51.5222C125.154 39.5447 105.736 39.5447 93.7585 51.5222C81.781 63.4998 81.781 82.9179 93.7585 94.8955C99.5658 100.703 107.279 103.879 115.445 103.879C121.978 103.879 128.239 101.792 133.411 98.0713L139.219 103.879L138.402 104.695C137.495 105.603 137.495 107.145 138.402 108.053L158.274 127.924C159.181 128.832 160.724 128.832 161.631 127.924L170.251 119.304C171.25 118.488 171.25 117.036 170.251 116.038ZM115.445 94.1695C109.819 94.1695 104.556 91.9918 100.655 87.9993C92.4882 79.8328 92.4882 66.4942 100.655 58.3276C104.738 54.2444 110.092 52.1574 115.445 52.1574C120.799 52.1574 126.152 54.2444 130.236 58.3276C138.402 66.4942 138.402 79.8328 130.236 87.9993C126.334 91.9918 121.071 94.1695 115.445 94.1695Z" fill="#212EEE"/>
    </g>
    <defs>
        <filter id="filter0_d" x="0.658165" y="28.209" width="136.18" height="135.689" filterUnits="userSpaceOnUse" color-interpolation-filters="sRGB">
            <feFlood flood-opacity="0" result="BackgroundImageFix"/>
            <feColorMatrix in="SourceAlpha" type="matrix" values="0 0 0 0 0 0 0 0 0 0 0 0 0 0 0 0 0 0 127 0" result="hardAlpha"/>
            <feOffset dy="5.04591"/>
            <feGaussianBlur stdDeviation="7.56887"/>
            <feColorMatrix type="matrix" values="0 0 0 0 0.129412 0 0 0 0 0.180392 0 0 0 0 0.933333 0 0 0 0.15 0"/>
            <feBlend mode="normal" in2="BackgroundImageFix" result="effect1_dropShadow"/>
            <feBlend mode="normal" in="SourceGraphic" in2="effect1_dropShadow" result="shape"/>
        </filter>
        <filter id="filter1_f" x="73.2788" y="31.0424" width="109.218" height="109.059" filterUnits="userSpaceOnUse" color-interpolation-filters="sRGB">
            <feFlood flood-opacity="0" result="BackgroundImageFix"/>
            <feBlend mode="normal" in="SourceGraphic" in2="BackgroundImageFix" result="shape"/>
            <feGaussianBlur stdDeviation="5.74831" result="effect1_foregroundBlur"/>
        </filter>
    </defs>
</svg>
